<?xml version="1.0" standalone="no"?>
<!DOCTYPE svg PUBLIC "-//W3C//DTD SVG 20010904//EN"
 "http://www.w3.org/TR/2001/REC-SVG-20010904/DTD/svg10.dtd">
<svg version="1.0" xmlns="http://www.w3.org/2000/svg"
 width="500.000000pt" height="500.000000pt" viewBox="0 0 500.000000 500.000000"
 preserveAspectRatio="xMidYMid meet">
<metadata>
Created by potrace 1.14, written by Peter Selinger 2001-2017
</metadata>
<g transform="translate(0.000000,500.000000) scale(0.100000,-0.100000)"
fill="#000000" stroke="none">
<path d="M2355 4439 c-90 -29 -126 -52 -198 -124 -89 -90 -172 -244 -237 -442
l-37 -111 71 -27 c39 -14 112 -42 161 -61 83 -32 91 -33 103 -17 6 9 12 24 12
33 0 8 6 24 13 35 7 11 12 30 11 43 -1 12 3 25 7 28 5 3 9 12 9 19 0 8 12 40
27 72 14 32 27 60 28 63 8 22 21 47 29 57 6 6 22 28 36 47 30 42 45 49 68 35
24 -15 84 -103 111 -164 13 -27 27 -59 32 -70 18 -40 38 -105 32 -105 -3 0 -1
-6 5 -12 5 -7 13 -29 17 -48 4 -19 9 -38 12 -42 2 -4 34 4 71 18 37 14 110 41
162 59 108 38 103 25 59 159 -61 183 -150 346 -241 439 -76 78 -145 114 -238
123 -25 3 -52 6 -60 7 -8 2 -38 -5 -65 -14z"/>
<path d="M1175 3699 c-61 -6 -105 -13 -140 -23 -5 -1 -27 -10 -49 -19 -21 -9
-40 -17 -43 -17 -18 0 -123 -94 -123 -110 0 -5 -4 -10 -9 -10 -5 0 -19 -24
-31 -52 -29 -66 -35 -173 -14 -251 36 -140 157 -332 307 -490 43 -45 49 -49
65 -35 9 8 28 24 41 34 13 10 28 24 35 29 32 28 86 72 110 89 15 11 36 28 48
37 l20 18 -24 24 c-12 13 -48 52 -78 86 -30 35 -60 69 -65 75 -28 30 -75 101
-75 113 0 7 -4 13 -8 13 -14 0 -47 109 -37 119 45 44 262 30 500 -32 43 -12
55 -11 85 1 95 40 224 54 299 32 31 -8 43 -4 137 48 57 31 104 60 104 63 0 4
-26 17 -57 29 -32 12 -67 26 -78 32 -12 5 -28 10 -38 12 -9 1 -20 5 -23 9 -4
4 -16 7 -26 7 -10 0 -18 5 -18 11 0 5 -4 8 -8 5 -5 -3 -21 1 -36 9 -15 8 -37
16 -49 17 -12 2 -26 6 -32 9 -5 4 -23 10 -40 14 -35 10 -36 10 -55 18 -55 23
-289 70 -410 82 -97 11 -109 11 -185 4z"/>
<path d="M3627 3704 c-1 -1 -38 -4 -82 -8 -132 -10 -175 -17 -294 -47 -63 -16
-117 -26 -122 -24 -4 3 -9 1 -11 -5 -2 -6 -12 -12 -23 -14 -11 -2 -32 -9 -47
-15 -16 -6 -28 -9 -28 -6 0 2 -20 -4 -45 -15 -25 -11 -49 -20 -53 -21 -83 -18
-572 -241 -717 -328 -109 -65 -167 -90 -184 -81 -47 25 -157 32 -218 14 -147
-44 -244 -172 -245 -321 0 -18 -4 -33 -8 -33 -5 0 -22 -11 -38 -25 -16 -13
-33 -21 -37 -17 -5 4 -5 2 -2 -4 3 -5 -13 -22 -36 -37 -22 -15 -37 -27 -32
-27 6 -1 0 -6 -12 -13 -58 -33 -314 -278 -398 -381 -22 -28 -48 -58 -58 -68
-9 -10 -14 -18 -11 -18 3 0 -1 -7 -8 -15 -29 -32 -37 -45 -77 -117 -126 -229
-118 -414 22 -551 42 -41 143 -94 193 -102 16 -2 43 -7 59 -10 63 -14 254 -8
358 10 34 6 79 15 92 19 6 1 37 8 70 15 33 8 65 14 70 16 6 1 17 5 25 8 8 3
49 15 90 27 41 13 79 26 85 31 5 5 17 9 27 9 9 0 32 6 50 14 18 8 84 36 146
62 62 26 111 48 110 49 -3 2 -42 24 -190 105 -54 30 -98 57 -98 62 0 4 -9 8
-20 8 -11 0 -20 5 -20 11 0 5 -4 8 -9 5 -5 -4 -11 -1 -13 4 -4 14 -60 20 -73
9 -6 -4 -22 -10 -37 -13 -14 -2 -36 -9 -47 -16 -12 -6 -21 -8 -21 -5 0 3 -13
-1 -30 -10 -16 -8 -32 -15 -35 -14 -3 0 -18 -2 -33 -5 -15 -4 -36 -8 -47 -10
-11 -3 -41 -9 -68 -15 -26 -6 -64 -14 -85 -17 -20 -3 -48 -7 -62 -10 -65 -11
-217 -3 -242 12 -13 8 -4 52 21 104 36 77 120 180 261 320 146 146 173 170
298 267 75 59 85 64 110 55 47 -16 149 -11 205 10 106 40 180 124 208 235 13
53 21 69 45 82 16 9 31 18 34 21 8 8 117 66 250 132 69 35 128 68 132 73 4 6
8 7 8 3 0 -4 24 5 53 20 28 14 58 25 65 24 6 -2 12 2 12 8 0 5 9 10 20 10 11
0 20 4 20 10 0 5 3 9 8 8 4 -1 23 4 42 11 19 8 40 15 45 17 6 2 55 19 110 39
176 64 338 107 460 122 78 10 207 6 239 -6 25 -10 28 -15 22 -43 -3 -17 -18
-55 -33 -84 -27 -53 -151 -213 -210 -271 -18 -18 -33 -36 -33 -41 0 -5 17 -22
38 -39 20 -17 66 -55 102 -85 36 -29 78 -65 94 -79 l28 -26 47 51 c25 28 48
53 51 56 19 18 92 115 125 165 22 33 44 63 48 66 5 3 9 10 9 15 0 5 8 27 18
50 64 139 82 241 59 336 -15 66 -77 157 -130 193 -24 16 -46 33 -49 36 -13 15
-154 50 -228 57 -45 5 -84 7 -85 6z"/>
<path d="M2875 2971 c-71 -32 -156 -71 -189 -87 l-59 -31 31 -21 c16 -12 35
-22 41 -22 6 0 11 -4 11 -10 0 -5 7 -10 15 -10 8 0 15 -4 15 -10 0 -5 6 -10
13 -10 7 0 23 -9 35 -20 12 -11 24 -20 28 -20 19 0 297 -198 420 -299 18 -14
46 -37 64 -50 18 -14 45 -36 61 -50 16 -14 45 -39 65 -56 134 -111 281 -283
328 -385 26 -55 33 -104 18 -114 -35 -21 -160 -22 -307 -1 -11 1 -26 3 -32 4
-7 0 -24 23 -37 50 -14 27 -40 64 -58 82 -37 37 -98 89 -98 84 0 -2 -18 2 -41
10 -91 32 -180 23 -278 -30 -34 -19 -55 -25 -63 -18 -7 5 -40 20 -73 32 -129
51 -535 266 -662 351 -23 16 -50 27 -60 25 -10 -2 -18 -4 -18 -5 0 -2 -15 -6
-60 -16 -16 -3 -66 -7 -111 -8 -56 -1 -85 -5 -96 -16 -9 -8 -28 -24 -43 -34
-38 -28 -65 -52 -65 -59 0 -3 45 -37 101 -74 129 -87 129 -87 246 -156 54 -32
105 -62 113 -67 8 -5 51 -28 95 -51 44 -23 83 -46 86 -51 3 -5 10 -10 15 -9 5
0 63 -26 129 -58 66 -32 164 -78 218 -102 77 -33 101 -48 108 -68 29 -79 103
-157 187 -197 46 -22 71 -27 127 -26 39 0 77 2 85 4 20 5 84 39 90 48 14 20
49 29 79 20 17 -5 34 -9 36 -9 3 -1 6 -1 8 -2 39 -12 398 -19 412 -8 6 4 24 9
40 11 17 2 32 5 35 8 3 3 25 14 49 25 61 27 132 100 166 170 48 100 43 230
-14 360 -29 66 -105 194 -131 222 -11 12 -20 25 -20 28 0 10 -57 72 -185 200
-152 152 -218 211 -320 287 -5 4 -23 18 -40 31 -54 42 -340 244 -360 255 -16
8 -45 -1 -150 -47z"/>
<path d="M2198 1464 c-4 -3 -14 -7 -25 -9 -10 -2 -19 -4 -20 -5 -2 -2 -6 -4
-10 -5 -5 -1 -24 -8 -43 -16 -19 -7 -38 -12 -42 -11 -5 1 -8 -2 -8 -8 0 -5 -3
-9 -7 -8 -5 2 -41 -8 -80 -21 -80 -26 -84 -32 -58 -95 8 -20 12 -36 9 -36 -4
0 -1 -7 6 -15 7 -8 10 -15 7 -15 -4 0 2 -20 13 -45 11 -25 20 -49 21 -53 0 -4
16 -41 35 -82 19 -41 34 -77 34 -79 -1 -2 2 -7 7 -10 4 -3 26 -33 48 -65 81
-120 189 -204 286 -221 18 -3 35 -8 37 -10 2 -2 15 0 28 5 15 6 24 6 24 0 0
-6 10 -6 26 0 14 6 29 8 34 5 5 -3 11 -1 15 5 3 5 17 10 31 10 13 0 24 3 24 8
0 4 13 13 29 20 92 41 236 241 306 425 14 37 25 69 25 71 0 3 -33 21 -74 41
-73 36 -180 129 -192 167 -5 17 -36 27 -32 11 2 -10 -13 -64 -21 -78 -3 -5 -6
-17 -8 -25 -2 -13 -9 -32 -56 -140 -27 -62 -87 -147 -115 -161 -21 -12 -26 -9
-55 26 -18 22 -31 43 -30 47 2 4 -2 8 -7 8 -5 0 -10 7 -10 15 0 8 -3 15 -8 15
-4 0 -18 28 -32 63 -13 34 -27 67 -30 72 -4 6 -11 24 -15 40 -5 17 -9 32 -10
35 -1 3 -10 33 -20 68 -17 59 -24 69 -37 56z"/>
</g>
</svg>
